<svg xmlns="http://www.w3.org/2000/svg">
  <symbol viewBox="0 0 24 24" id='source-rep'>
    <path d="M6,2H18A2,2 0 0,1 20,4V20A2,2 0 0,1 18,22H6A2,2 0 0,1 4,20V4A2,2 0 0,1 6,2M12.75,13.5C15.5,13.5 16.24,11.47 16.43,10.4C17.34,10.11 18,9.26 18,8.25C18,7 17,6 15.75,6C14.5,6 13.5,7 13.5,8.25C13.5,9.19 14.07,10 14.89,10.33C14.67,11 14,12 12,12C10.62,12 9.66,12.35 9,12.84V8.87C9.87,8.56 10.5,7.73 10.5,6.75C10.5,5.5 9.5,4.5 8.25,4.5C7,4.5 6,5.5 6,6.75C6,7.73 6.63,8.56 7.5,8.87V15.13C6.63,15.44 6,16.27 6,17.25C6,18.5 7,19.5 8.25,19.5C9.5,19.5 10.5,18.5 10.5,17.25C10.5,16.32 9.94,15.5 9.13,15.18C9.41,14.5 10.23,13.5 12.75,13.5M8.25,16.5A0.75,0.75 0 0,1 9,17.25A0.75,0.75 0 0,1 8.25,18A0.75,0.75 0 0,1 7.5,17.25A0.75,0.75 0 0,1 8.25,16.5M8.25,6A0.75,0.75 0 0,1 9,6.75A0.75,0.75 0 0,1 8.25,7.5A0.75,0.75 0 0,1 7.5,6.75A0.75,0.75 0 0,1 8.25,6M15.75,7.5A0.75,0.75 0 0,1 16.5,8.25A0.75,0.75 0 0,1 15.75,9A0.75,0.75 0 0,1 15,8.25A0.75,0.75 0 0,1 15.75,7.5Z"/>
  </symbol>
  <symbol viewBox="0 0 24 24" id='star'>
    <path d="M12,17.27L18.18,21L16.54,13.97L22,9.24L14.81,8.62L12,2L9.19,8.62L2,9.24L7.45,13.97L5.82,21L12,17.27Z"/>
  </symbol>
  <symbol viewBox="0 0 24 24" id='acc-multi'>
    <path d="M16 17V19H2V17S2 13 9 13 16 17 16 17M12.5 7.5A3.5 3.5 0 1 0 9 11A3.5 3.5 0 0 0 12.5 7.5M15.94 13A5.32 5.32 0 0 1 18 17V19H22V17S22 13.37 15.94 13M15 4A3.39 3.39 0 0 0 13.07 4.59A5 5 0 0 1 13.07 10.41A3.39 3.39 0 0 0 15 11A3.5 3.5 0 0 0 15 4Z"/>
  </symbol>
  <symbol viewBox="0 0 24 24" id='fork'>
    <path d="M6,2A3,3 0 0,1 9,5C9,6.28 8.19,7.38 7.06,7.81C7.15,8.27 7.39,8.83 8,9.63C9,10.92 11,12.83 12,14.17C13,12.83 15,10.92 16,9.63C16.61,8.83 16.85,8.27 16.94,7.81C15.81,7.38 15,6.28 15,5A3,3 0 0,1 18,2A3,3 0 0,1 21,5C21,6.32 20.14,7.45 18.95,7.85C18.87,8.37 18.64,9 18,9.83C17,11.17 15,13.08 14,14.38C13.39,15.17 13.15,15.73 13.06,16.19C14.19,16.62 15,17.72 15,19A3,3 0 0,1 12,22A3,3 0 0,1 9,19C9,17.72 9.81,16.62 10.94,16.19C10.85,15.73 10.61,15.17 10,14.38C9,13.08 7,11.17 6,9.83C5.36,9 5.13,8.37 5.05,7.85C3.86,7.45 3,6.32 3,5A3,3 0 0,1 6,2M6,4A1,1 0 0,0 5,5A1,1 0 0,0 6,6A1,1 0 0,0 7,5A1,1 0 0,0 6,4M18,4A1,1 0 0,0 17,5A1,1 0 0,0 18,6A1,1 0 0,0 19,5A1,1 0 0,0 18,4M12,18A1,1 0 0,0 11,19A1,1 0 0,0 12,20A1,1 0 0,0 13,19A1,1 0 0,0 12,18Z"/>
  </symbol>
</svg>